<svg xmlns="http://www.w3.org/2000/svg" viewBox="0 0 32 32"><g data-name="Layer 2"
                                                               fill="#fff"
                                                               class="color000 svgShape">
    <path d="M23 17a6 6 0 106 6A6.006 6.006 0 0023 17zM25.9 24.447a1 1 0 01-1.342.448l-2-1A1 1 0 0122 23V20a1 1 0 012 0v2.382l1.447.723A1 1 0 0125.9 24.447zM27 7a3 3 0 00-3-3H21V3a1 1 0 00-2 0V4H10V3A1 1 0 008 3V4H5A3 3 0 002 7v3H27z"
          fill="#595bd4" class="color000 svgShape"/>
    <path d="M23,15a7.906,7.906,0,0,1,4,1.08V12H2V24a3.009,3.009,0,0,0,3,3H16.08A7.906,7.906,0,0,1,15,23,8.011,8.011,0,0,1,23,15ZM8,23H6a1,1,0,0,1,0-2H8a1,1,0,0,1,0,2Zm0-5H6a1,1,0,0,1,0-2H8a1,1,0,0,1,0,2Zm6,0H12a1,1,0,0,1,0-2h2a1,1,0,0,1,0,2Z"
          fill="#595bd4" class="color000 svgShape"/></g></svg>