<svg xmlns="http://www.w3.org/2000/svg"
     enable-background="new 0 0 24 24"
     viewBox="0 0 24 24"><path fill="#8c8aff"
                               d="M18.307 12.221A4.967 4.967 0 0 1 15 13.5c-.272 0-.537-.025-.796-.068-.027-.024-.059-.041-.086-.065A7.965 7.965 0 0 1 17 19.5a1 1 0 0 1-1 1h6a1 1 0 0 0 1-1 7.995 7.995 0 0 0-4.693-7.279z"
                               class="color6563ff svgShape"/>
    <path fill="#8c8aff"
          d="M9 13.5a5 5 0 1 1 0-10 5 5 0 0 1 0 10z"
          class="colord8d8ff svgShape"/>
    <path fill="#595bd4" d="M9 13.5a5 5 0 1 1 0-10 5 5 0 0 1 0 10z" class="colord8d8ff svgShape"/><path fill="#595bd4" d="M12.307 12.221A4.967 4.967 0 0 1 9 13.5a4.96 4.96 0 0 1-3.309-1.277A7.995 7.995 0 0 0 1 19.5a1 1 0 0 0 1 1h14a1 1 0 0 0 1-1 7.995 7.995 0 0 0-4.693-7.279z"
                                                                                                        class="colorb2b1ff svgShape"/><path fill="#8c8aff" d="M15 3.5c-1.13 0-2.162.39-3 1.023a4.999 4.999 0 0 1 .927.917 4.963 4.963 0 0 1 .594.955c.042.091.085.181.122.275.097.241.175.49.233.75.013.06.022.123.034.185.053.29.09.588.09.895 0 .315-.036.62-.093.917-.009.044-.013.09-.023.133a4.864 4.864 0 0 1-.227.729c-.036.094-.071.188-.113.28-.084.18-.18.352-.283.52-.26.429-.581.81-.955 1.143.691.314 1.33.721 1.898 1.21.26.043.524.068.796.068a5 5 0 0 0 0-10z"
                                                                                                                                                                                                                                                                                                                          class="color8c8aff svgShape"/></svg>